<svg version="1.1" xmlns="http://www.w3.org/2000/svg" viewBox="0 0 554.7173914558657 428.7195513165442" width="1664.1521743675971" height="1286.1586539496325">
  <!-- svg-source:excalidraw -->
  
  <defs>
    <style class="style-fonts">
      @font-face {
        font-family: "Virgil";
        src: url("https://excalidraw.com/Virgil.woff2");
      }
      @font-face {
        font-family: "Cascadia";
        src: url("https://excalidraw.com/Cascadia.woff2");
      }
    </style>
    
  </defs>
  <rect x="0" y="0" width="554.7173914558657" height="428.7195513165442" fill="#ffffff"></rect><g stroke-linecap="round" transform="translate(286.47397882853943 10) rotate(0 94.18113292419963 104.20690548588294)"><path d="M188.36 104.21 C188.36 107.61, 188.21 111.03, 187.91 114.42 C187.61 117.81, 187.15 121.2, 186.55 124.54 C185.95 127.88, 185.2 131.2, 184.31 134.46 C183.41 137.71, 182.37 140.94, 181.19 144.09 C180.02 147.23, 178.69 150.33, 177.24 153.33 C175.79 156.33, 174.2 159.27, 172.49 162.1 C170.78 164.93, 168.94 167.68, 166.98 170.32 C165.03 172.95, 162.95 175.48, 160.78 177.89 C158.6 180.3, 156.31 182.6, 153.93 184.76 C151.55 186.92, 149.06 188.96, 146.51 190.85 C143.95 192.74, 141.29 194.5, 138.58 196.11 C135.86 197.71, 133.07 199.18, 130.22 200.48 C127.38 201.78, 124.47 202.94, 121.52 203.93 C118.58 204.92, 115.57 205.75, 112.55 206.41 C109.54 207.08, 106.47 207.58, 103.41 207.91 C100.35 208.25, 97.26 208.41, 94.18 208.41 C91.1 208.41, 88.01 208.25, 84.95 207.91 C81.89 207.58, 78.83 207.08, 75.81 206.41 C72.79 205.75, 69.79 204.92, 66.84 203.93 C63.9 202.94, 60.98 201.78, 58.14 200.48 C55.3 199.18, 52.5 197.71, 49.78 196.11 C47.07 194.5, 44.42 192.74, 41.86 190.85 C39.3 188.96, 36.81 186.92, 34.43 184.76 C32.05 182.6, 29.76 180.3, 27.59 177.89 C25.41 175.48, 23.33 172.95, 21.38 170.32 C19.43 167.68, 17.58 164.93, 15.87 162.1 C14.16 159.27, 12.57 156.33, 11.12 153.33 C9.67 150.33, 8.35 147.23, 7.17 144.09 C5.99 140.94, 4.95 137.71, 4.06 134.46 C3.16 131.2, 2.41 127.88, 1.81 124.54 C1.21 121.2, 0.76 117.81, 0.45 114.42 C0.15 111.03, 0 107.61, 0 104.21 C0 100.8, 0.15 97.38, 0.45 93.99 C0.76 90.6, 1.21 87.22, 1.81 83.88 C2.41 80.54, 3.16 77.22, 4.06 73.96 C4.95 70.7, 5.99 67.47, 7.17 64.33 C8.35 61.18, 9.67 58.09, 11.12 55.08 C12.57 52.08, 14.16 49.14, 15.87 46.31 C17.58 43.48, 19.43 40.73, 21.38 38.1 C23.33 35.47, 25.41 32.93, 27.59 30.52 C29.76 28.11, 32.05 25.81, 34.43 23.65 C36.81 21.49, 39.3 19.45, 41.86 17.56 C44.42 15.67, 47.07 13.91, 49.78 12.3 C52.5 10.7, 55.3 9.24, 58.14 7.93 C60.98 6.63, 63.9 5.48, 66.84 4.49 C69.79 3.5, 72.79 2.67, 75.81 2 C78.83 1.34, 81.89 0.84, 84.95 0.5 C88.01 0.17, 91.1 0, 94.18 0 C97.26 0, 100.35 0.17, 103.41 0.5 C106.47 0.84, 109.54 1.34, 112.55 2 C115.57 2.67, 118.58 3.5, 121.52 4.49 C124.47 5.48, 127.38 6.63, 130.22 7.93 C133.07 9.24, 135.86 10.7, 138.58 12.3 C141.29 13.91, 143.95 15.67, 146.51 17.56 C149.06 19.45, 151.55 21.49, 153.93 23.65 C156.31 25.81, 158.6 28.11, 160.78 30.52 C162.95 32.93, 165.03 35.47, 166.98 38.1 C168.94 40.73, 170.78 43.48, 172.49 46.31 C174.2 49.14, 175.79 52.08, 177.24 55.08 C178.69 58.09, 180.02 61.18, 181.19 64.33 C182.37 67.47, 183.41 70.7, 184.31 73.96 C185.2 77.22, 185.95 80.54, 186.55 83.88 C187.15 87.22, 187.61 90.6, 187.91 93.99 C188.21 97.38, 188.29 102.5, 188.36 104.21 C188.44 105.91, 188.44 102.5, 188.36 104.21" stroke="transparent" stroke-width="1" fill="none"></path></g><g stroke-linecap="round"><g transform="translate(331.1669356518896 129.86372796210418) rotate(0 15.069590163130727 -12.095246849713135)"><path d="M0 0 C1.7 -0.93, 6.86 -5.52, 10.19 -5.56 C13.53 -5.6, 16.86 -0.38, 20 -0.23 C23.14 -0.09, 27.37 -0.7, 29.05 -4.69 C30.73 -8.69, 29.92 -20.94, 30.09 -24.19 M0 0 C1.7 -0.93, 6.86 -5.52, 10.19 -5.56 C13.53 -5.6, 16.86 -0.38, 20 -0.23 C23.14 -0.09, 27.37 -0.7, 29.05 -4.69 C30.73 -8.69, 29.92 -20.94, 30.09 -24.19" stroke="#495057" stroke-width="1" fill="none"></path></g></g><mask></mask><g stroke-linecap="round"><g transform="translate(412.3702669248544 198.96648408277667) rotate(0 6.218699545761183 -17.32825587428036)"><path d="M0 0 C1.69 -1.19, 6.51 -6.63, 10.13 -7.16 C13.75 -7.69, 18.2 -1.76, 21.73 -3.18 C25.26 -4.6, 35.68 -10.48, 31.32 -15.67 C26.96 -20.87, 4.14 -32.44, -4.4 -34.36 C-12.95 -36.28, -17.34 -28.39, -19.93 -27.19 M0 0 C1.69 -1.19, 6.51 -6.63, 10.13 -7.16 C13.75 -7.69, 18.2 -1.76, 21.73 -3.18 C25.26 -4.6, 35.68 -10.48, 31.32 -15.67 C26.96 -20.87, 4.14 -32.44, -4.4 -34.36 C-12.95 -36.28, -17.34 -28.39, -19.93 -27.19" stroke="#495057" stroke-width="1" fill="none"></path></g></g><mask></mask><g stroke-linecap="round"><g transform="translate(276.41551727230456 145.56064083500365) rotate(0 63.56889710743866 17.094880424902613)" fill-rule="evenodd"><path d="M0 0 L0.27 7 L93.1 61.04 L125.95 37.39 L127.14 26.74 L35.06 -26.85 L0 0" stroke="none" stroke-width="0" fill="#ced4da" fill-rule="evenodd"></path><path d="M0 0 C0.08 1.95, 0.15 3.9, 0.27 7 M0 0 C0.09 2.28, 0.18 4.56, 0.27 7 M0.27 7 C25.94 21.94, 51.6 36.88, 93.1 61.04 M0.27 7 C26.5 22.26, 52.72 37.53, 93.1 61.04 M93.1 61.04 C105.68 51.98, 118.26 42.93, 125.95 37.39 M93.1 61.04 C102.29 54.42, 111.48 47.81, 125.95 37.39 M125.95 37.39 C126.19 35.23, 126.43 33.07, 127.14 26.74 M125.95 37.39 C126.3 34.26, 126.65 31.12, 127.14 26.74 M127.14 26.74 C105.11 13.92, 83.08 1.1, 35.06 -26.85 M127.14 26.74 C108.08 15.65, 89.03 4.56, 35.06 -26.85 M35.06 -26.85 C26.7 -20.44, 18.33 -14.04, 0 0 M35.06 -26.85 C22.49 -17.22, 9.92 -7.59, 0 0 M0 0 C0 0, 0 0, 0 0 M0 0 C0 0, 0 0, 0 0" stroke="#495057" stroke-width="2" fill="none"></path></g></g><mask></mask><g stroke-linecap="round"><g transform="translate(277.7858839592602 146.8618048840246) rotate(0 62.71106865115746 26.68431217956868)"><path d="M0 0 C31.24 18.23, 62.47 36.46, 91.44 53.37 M0 0 C30.69 17.91, 61.38 35.82, 91.44 53.37 M91.44 53.37 C103.81 42.98, 116.19 32.6, 125.42 24.85 M91.44 53.37 C101.69 44.76, 111.94 36.16, 125.42 24.85" stroke="#495057" stroke-width="1" fill="none"></path></g></g><mask></mask><g stroke-linecap="round"><g transform="translate(369.53907668900376 207.70821603266995) rotate(0 -0.037255097924457914 -3.562318638943566)"><path d="M0 0 C-0.02 -2.2, -0.05 -4.39, -0.07 -7.12 M0 0 C-0.03 -2.5, -0.05 -5.01, -0.07 -7.12" stroke="#495057" stroke-width="1" fill="none"></path></g></g><mask></mask><g stroke-linecap="round"><g transform="translate(310.06161882353354 125.84509707418823) rotate(0 13.873557418322946 25.239095510256362)" fill-rule="evenodd"><path d="M0 0 L-24.88 19.42 L29.49 50.48 L52.62 29.75 L0 0" stroke="none" stroke-width="0" fill="#495057" fill-rule="evenodd"></path><path d="M0 0 C-8.61 6.72, -17.21 13.44, -24.88 19.42 M0 0 C-6.33 4.94, -12.66 9.88, -24.88 19.42 M-24.88 19.42 C-13.02 26.19, -1.17 32.96, 29.49 50.48 M-24.88 19.42 C-3.94 31.38, 16.99 43.34, 29.49 50.48 M29.49 50.48 C37.56 43.25, 45.63 36.01, 52.62 29.75 M29.49 50.48 C36.02 44.63, 42.54 38.78, 52.62 29.75 M52.62 29.75 C32.09 18.14, 11.56 6.53, 0 0 M52.62 29.75 C41.95 23.71, 31.28 17.68, 0 0 M0 0 C0 0, 0 0, 0 0 M0 0 C0 0, 0 0, 0 0" stroke="#495057" stroke-width="1" fill="none"></path></g></g><mask></mask><g stroke-linecap="round"><g transform="translate(365.9112879834945 157.6630446502142) rotate(0 0.9679735773570428 6.133057617610348)" fill-rule="evenodd"><path d="M0 0 L-7.8 7.16 L2.48 12.27 L9.74 5.5 L0 0" stroke="none" stroke-width="0" fill="#495057" fill-rule="evenodd"></path><path d="M0 0 C-2.68 2.46, -5.36 4.92, -7.8 7.16 M0 0 C-2.01 1.84, -4.01 3.68, -7.8 7.16 M-7.8 7.16 C-3.88 9.11, 0.04 11.06, 2.48 12.27 M-7.8 7.16 C-5.02 8.54, -2.24 9.92, 2.48 12.27 M2.48 12.27 C4.61 10.28, 6.75 8.29, 9.74 5.5 M2.48 12.27 C4.29 10.58, 6.1 8.9, 9.74 5.5 M9.74 5.5 C6.47 3.66, 3.2 1.81, 0 0 M9.74 5.5 C6.27 3.54, 2.79 1.58, 0 0 M0 0 C0 0, 0 0, 0 0 M0 0 C0 0, 0 0, 0 0" stroke="#495057" stroke-width="1" fill="none"></path></g></g><mask></mask><g stroke-linecap="round"><g transform="translate(379.320587225778 164.84659781572407) rotate(0 -4.539417182867055 14.593686901433045)" fill-rule="evenodd"><path d="M0 0 L-22.65 20.41 L-8.86 29.19 L13.57 8.86 L0 0" stroke="none" stroke-width="0" fill="#495057" fill-rule="evenodd"></path><path d="M0 0 C-5.49 4.95, -10.97 9.89, -22.65 20.41 M0 0 C-6.2 5.59, -12.39 11.17, -22.65 20.41 M-22.65 20.41 C-17.5 23.69, -12.35 26.97, -8.86 29.19 M-22.65 20.41 C-17.84 23.47, -13.03 26.53, -8.86 29.19 M-8.86 29.19 C-2.58 23.5, 3.69 17.81, 13.57 8.86 M-8.86 29.19 C-3.67 24.48, 1.52 19.78, 13.57 8.86 M13.57 8.86 C9.32 6.08, 5.06 3.3, 0 0 M13.57 8.86 C8.18 5.34, 2.78 1.82, 0 0 M0 0 C0 0, 0 0, 0 0 M0 0 C0 0, 0 0, 0 0" stroke="#495057" stroke-width="1" fill="none"></path></g></g><mask></mask><g stroke-linecap="round"><g transform="translate(390.4703470945964 210.31613211622857) rotate(0 12.280311459271445 -4.5329691844818)" fill-rule="evenodd"><path d="M0 0 L12.16 5.13 L24.56 -4.58 L24.23 -10.09 L14.25 -14.19 L0 0" stroke="none" stroke-width="0" fill="#ced4da" fill-rule="evenodd"></path><path d="M0 0 C4.45 1.87, 8.89 3.75, 12.16 5.13 M0 0 C3.49 1.47, 6.99 2.95, 12.16 5.13 M12.16 5.13 C17.09 1.27, 22.02 -2.59, 24.56 -4.58 M12.16 5.13 C15.98 2.14, 19.79 -0.85, 24.56 -4.58 M24.56 -4.58 C24.47 -6.07, 24.38 -7.57, 24.23 -10.09 M24.56 -4.58 C24.48 -5.9, 24.4 -7.22, 24.23 -10.09 M24.23 -10.09 C20.93 -11.45, 17.62 -12.8, 14.25 -14.19 M24.23 -10.09 C21.45 -11.23, 18.67 -12.37, 14.25 -14.19 M14.25 -14.19 C11.34 -11.29, 8.42 -8.39, 0 0 M14.25 -14.19 C9.5 -9.46, 4.75 -4.73, 0 0 M0 0 C0 0, 0 0, 0 0 M0 0 C0 0, 0 0, 0 0" stroke="#495057" stroke-width="2" fill="none"></path></g></g><mask></mask><g stroke-linecap="round"><g transform="translate(370.437367537122 108.97962440769692) rotate(0 29.80261832124188 11.106648009029868)" fill-rule="evenodd"><path d="M0 0 L0.27 22.41 L30.49 37.9 L58.42 18.13 L59.61 -3.54 L32.3 -15.69 L0 0" stroke="none" stroke-width="0" fill="#ced4da" fill-rule="evenodd"></path><path d="M0 0 C0.1 7.91, 0.19 15.81, 0.27 22.41 M0 0 C0.09 7.18, 0.17 14.36, 0.27 22.41 M0.27 22.41 C6.82 25.77, 13.37 29.13, 30.49 37.9 M0.27 22.41 C10.26 27.53, 20.25 32.66, 30.49 37.9 M30.49 37.9 C37.11 33.22, 43.73 28.53, 58.42 18.13 M30.49 37.9 C37.12 33.21, 43.76 28.51, 58.42 18.13 M58.42 18.13 C58.7 12.9, 58.99 7.68, 59.61 -3.54 M58.42 18.13 C58.84 10.33, 59.27 2.53, 59.61 -3.54 M59.61 -3.54 C49.37 -8.09, 39.14 -12.64, 32.3 -15.69 M59.61 -3.54 C54.08 -5.99, 48.56 -8.45, 32.3 -15.69 M32.3 -15.69 C24.4 -11.86, 16.51 -8.02, 0 0 M32.3 -15.69 C25.5 -12.39, 18.71 -9.09, 0 0 M0 0 C0 0, 0 0, 0 0 M0 0 C0 0, 0 0, 0 0" stroke="#495057" stroke-width="2" fill="none"></path></g></g><mask></mask><g stroke-linecap="round"><g transform="translate(361.0504636103242 13.687824700443912) rotate(0 47.72116925782757 61.831699236440954)"><path d="M0 0 C6.27 0.62, 23.12 -1.33, 37.61 3.73 C52.11 8.8, 77.38 19.59, 86.98 30.38 C96.59 41.17, 94.53 57.14, 95.23 68.47 C95.94 79.8, 94.94 89.34, 91.22 98.36 C87.5 107.38, 79.04 120.29, 72.93 122.58 C66.81 124.87, 65.35 124.46, 54.53 112.08 C43.72 99.7, 16.15 65.5, 8.04 48.29 C-0.07 31.08, 6.24 15.41, 5.88 8.83 M0 0 C6.27 0.62, 23.12 -1.33, 37.61 3.73 C52.11 8.8, 77.38 19.59, 86.98 30.38 C96.59 41.17, 94.53 57.14, 95.23 68.47 C95.94 79.8, 94.94 89.34, 91.22 98.36 C87.5 107.38, 79.04 120.29, 72.93 122.58 C66.81 124.87, 65.35 124.46, 54.53 112.08 C43.72 99.7, 16.15 65.5, 8.04 48.29 C-0.07 31.08, 6.24 15.41, 5.88 8.83" stroke="#495057" stroke-width="2" fill="none"></path></g></g><mask></mask><g stroke-linecap="round"><g transform="translate(334.47497696442167 75.96764636352634) rotate(0 56.93121617596029 2.5777576749656816)" fill-rule="evenodd"><path d="M0 0 L0.32 14.21 L2.76 23.65 L5.71 28.33 L10.26 32.73 L17.05 37.34 L47.92 53.36 L70.19 62.51 L79.72 65.61 L87.23 67.29 L97.36 67 L103.66 63.07 L107.58 56.03 L111.92 40.08 L113.84 13.87 L113.37 -4.47 L111.48 -18.69 L108.51 -27.03 L104.35 -31.93 L77.15 -46.08 L61.15 -52.97 L44.96 -58.84 L31.73 -62.03 L22.17 -62.4 L14.65 -60.71 L8.8 -56.75 L4.29 -50.31 L2.61 -45.53 L0.43 -24.42 L0 0" stroke="none" stroke-width="0" fill="#ced4da" fill-rule="evenodd"></path><path d="M0 0 C1.71 5.46, -4.28 21.52, 10.26 32.73 C24.79 43.95, 70.51 65.01, 87.23 67.29 C103.95 69.57, 106.54 60.73, 110.58 46.4 C114.62 32.07, 114.94 -4.32, 111.48 -18.69 C108.02 -33.06, 103.13 -32.58, 89.83 -39.81 C76.54 -47.03, 45.99 -60.28, 31.73 -62.03 C17.47 -63.78, 9.58 -60.65, 4.29 -50.31 C-1 -39.97, 0.71 -8.39, 0 0 M0 0 C1.71 5.46, -4.28 21.52, 10.26 32.73 C24.79 43.95, 70.51 65.01, 87.23 67.29 C103.95 69.57, 106.54 60.73, 110.58 46.4 C114.62 32.07, 114.94 -4.32, 111.48 -18.69 C108.02 -33.06, 103.13 -32.58, 89.83 -39.81 C76.54 -47.03, 45.99 -60.28, 31.73 -62.03 C17.47 -63.78, 9.58 -60.65, 4.29 -50.31 C-1 -39.97, 0.71 -8.39, 0 0" stroke="#495057" stroke-width="2" fill="none"></path></g></g><mask></mask><g stroke-linecap="round"><g transform="translate(342.0431041882865 74.9082907499685) rotate(0 48.5933153080361 2.2784431515436836)" fill-rule="evenodd"><path d="M0 0 L0.49 11.97 L2.58 19.91 L8.62 27.51 L21.05 35.52 L38.15 44.25 L55.74 51.76 L69.67 56.1 L78.96 57.07 L85.79 55.59 L90.71 51.46 L94.3 44.45 L96.54 32.65 L97.18 16.8 L96.46 0.64 L94.6 -12.07 L91.89 -19.95 L88.12 -25.13 L75.5 -33.46 L51.33 -44.75 L37.76 -49.54 L26.67 -52.14 L18.63 -52.44 L12.31 -51.02 L7.4 -47.7 L3.6 -42.29 L1.25 -33 L0 0" stroke="none" stroke-width="0" fill="#343a40" fill-rule="evenodd"></path><path d="M0 0 C1.44 4.58, -2.99 18.16, 8.62 27.51 C20.23 36.86, 55.39 53.28, 69.67 56.1 C83.96 58.92, 90.15 55.81, 94.3 44.45 C98.46 33.09, 97.73 0.91, 94.6 -12.07 C91.47 -25.06, 86.82 -26.78, 75.5 -33.46 C64.18 -40.13, 38.65 -50.66, 26.67 -52.14 C14.69 -53.61, 8.05 -50.97, 3.6 -42.29 C-0.84 -33.6, 0.6 -7.05, 0 0 M0 0 C1.44 4.58, -2.99 18.16, 8.62 27.51 C20.23 36.86, 55.39 53.28, 69.67 56.1 C83.96 58.92, 90.15 55.81, 94.3 44.45 C98.46 33.09, 97.73 0.91, 94.6 -12.07 C91.47 -25.06, 86.82 -26.78, 75.5 -33.46 C64.18 -40.13, 38.65 -50.66, 26.67 -52.14 C14.69 -53.61, 8.05 -50.97, 3.6 -42.29 C-0.84 -33.6, 0.6 -7.05, 0 0" stroke="#495057" stroke-width="2" fill="none"></path></g></g><mask></mask><g stroke-linecap="round" transform="translate(10 90.21567781220585) rotate(0 67.65569076109495 20.338284891440992)"><path d="M9.15 0.62 L129.53 0.84 L135.48 7.16 L133.99 33.73 L131.2 39.66 L124.75 42.28 L3.88 39.21 L1.17 33.29 L-0.36 11.01 L2.71 4.29 L12.03 -0.85" stroke="none" stroke-width="0" fill="#caced175"></path><path d="M10.17 0 M10.17 0 C48.67 -1.17, 89.03 0.51, 125.14 0 M10.17 0 C37.84 -1.57, 67.06 -0.53, 125.14 0 M125.14 0 C130.76 -1.51, 134.42 2.96, 135.31 10.17 M125.14 0 C130.27 0.77, 137.08 3.8, 135.31 10.17 M135.31 10.17 C137.08 14.45, 136.91 20.22, 135.31 30.51 M135.31 10.17 C135.85 17.7, 135.73 25.45, 135.31 30.51 M135.31 30.51 C134.22 38.62, 132.25 38.84, 125.14 40.68 M135.31 30.51 C136.25 36.01, 129.7 39.22, 125.14 40.68 M125.14 40.68 C84.3 39.41, 45.19 39.54, 10.17 40.68 M125.14 40.68 C96.12 39.77, 65.51 40.67, 10.17 40.68 M10.17 40.68 C1.6 38.93, -1.45 38.31, 0 30.51 M10.17 40.68 C2.11 42.8, 1.24 35.94, 0 30.51 M0 30.51 C1.16 24.46, -0.6 15.61, 0 10.17 M0 30.51 C0.48 24.4, 0.4 16.08, 0 10.17 M0 10.17 C1.37 4.44, 1.9 -0.39, 10.17 0 M0 10.17 C-1.67 2, 3.75 -0.34, 10.17 0" stroke="#1e1e1e" stroke-width="1" fill="none"></path></g><g stroke-linecap="round"><g transform="translate(20.1936591678151 118.203729288879) rotate(0 5.807558139289 -7.302573105838661)"><path d="M0 0 C0.42 -1.3, 1.34 -5.62, 2.53 -7.82 C3.72 -10.02, 5.62 -12.09, 7.13 -13.23 C8.64 -14.36, 10.87 -14.38, 11.62 -14.61 M0 0 C0.42 -1.3, 1.34 -5.62, 2.53 -7.82 C3.72 -10.02, 5.62 -12.09, 7.13 -13.23 C8.64 -14.36, 10.87 -14.38, 11.62 -14.61" stroke="#85d8ff" stroke-width="2" fill="none"></path></g></g><mask></mask><g stroke-linecap="round" transform="translate(24.908706370010123 104.00830214537825) rotate(0 6.727567349473389 6.727567349473389)"><path d="M9.07 0.03 C10.45 0.57, 12.48 2.36, 13.12 3.8 C13.76 5.24, 13.26 7.41, 12.9 8.67 C12.55 9.94, 12.27 10.69, 10.98 11.39 C9.69 12.08, 6.74 12.79, 5.17 12.85 C3.6 12.91, 2.39 12.77, 1.57 11.74 C0.75 10.7, 0.18 8.19, 0.25 6.62 C0.33 5.05, 1.29 3.29, 2.02 2.33 C2.75 1.38, 3.29 0.91, 4.64 0.9 C5.99 0.88, 8.77 2.07, 10.13 2.26 C11.48 2.44, 12.66 1.94, 12.76 2.02 M7.63 0.64 C9.19 0.54, 10.66 0.54, 11.79 1.19 C12.92 1.85, 14.18 3.06, 14.39 4.59 C14.6 6.12, 14.13 9.17, 13.04 10.39 C11.95 11.61, 9.35 11.69, 7.83 11.92 C6.32 12.14, 5.24 11.84, 3.96 11.74 C2.68 11.63, 0.9 12.51, 0.15 11.28 C-0.59 10.05, -1.12 5.99, -0.5 4.34 C0.12 2.69, 2.53 1.93, 3.89 1.38 C5.25 0.83, 7.13 1.14, 7.64 1.05 C8.15 0.97, 7.12 0.76, 6.94 0.85" stroke="#85d8ff" stroke-width="1" fill="none"></path></g><g stroke-linecap="round"><g transform="translate(20.69113536740292 120.67715891192057) rotate(337.25846379975354 5.807558139289 -7.302573105838661)"><path d="M0 0 C0.42 -1.3, 1.34 -5.62, 2.53 -7.82 C3.72 -10.02, 5.62 -12.09, 7.13 -13.23 C8.64 -14.36, 10.87 -14.38, 11.62 -14.61 M0 0 C0.42 -1.3, 1.34 -5.62, 2.53 -7.82 C3.72 -10.02, 5.62 -12.09, 7.13 -13.23 C8.64 -14.36, 10.87 -14.38, 11.62 -14.61" stroke="#85d8ff" stroke-width="2" fill="none"></path></g></g><mask></mask><g stroke-linecap="round"><g transform="translate(22.055591866584336 122.5321592748316) rotate(313.17266007120975 5.807558139289 -7.302573105838661)"><path d="M0 0 C0.42 -1.3, 1.34 -5.62, 2.53 -7.82 C3.72 -10.02, 5.62 -12.09, 7.13 -13.23 C8.64 -14.36, 10.87 -14.38, 11.62 -14.61 M0 0 C0.42 -1.3, 1.34 -5.62, 2.53 -7.82 C3.72 -10.02, 5.62 -12.09, 7.13 -13.23 C8.64 -14.36, 10.87 -14.38, 11.62 -14.61" stroke="#85d8ff" stroke-width="2" fill="none"></path></g></g><mask></mask><g stroke-linecap="round"><g transform="translate(24.241005680217313 123.84883839777507) rotate(290.4311238709633 5.807558139289 -7.302573105838661)"><path d="M0 0 C0.42 -1.3, 1.34 -5.62, 2.53 -7.82 C3.72 -10.02, 5.62 -12.09, 7.13 -13.23 C8.64 -14.36, 10.87 -14.38, 11.62 -14.61 M0 0 C0.42 -1.3, 1.34 -5.62, 2.53 -7.82 C3.72 -10.02, 5.62 -12.09, 7.13 -13.23 C8.64 -14.36, 10.87 -14.38, 11.62 -14.61" stroke="#85d8ff" stroke-width="2" fill="none"></path></g></g><mask></mask><g stroke-linecap="round"><g transform="translate(26.812224310119404 123.83474247757732) rotate(266.145546360433 5.807558139289 -7.302573105838661)"><path d="M0 0 C0.42 -1.3, 1.34 -5.62, 2.53 -7.82 C3.72 -10.02, 5.62 -12.09, 7.13 -13.23 C8.64 -14.36, 10.87 -14.38, 11.62 -14.61 M0 0 C0.42 -1.3, 1.34 -5.62, 2.53 -7.82 C3.72 -10.02, 5.62 -12.09, 7.13 -13.23 C8.64 -14.36, 10.87 -14.38, 11.62 -14.61" stroke="#85d8ff" stroke-width="2" fill="none"></path></g></g><mask></mask><g stroke-linecap="round"><g transform="translate(29.293374142327593 123.29324856335268) rotate(243.40401016018663 5.807558139289 -7.302573105838661)"><path d="M0 0 C0.42 -1.3, 1.34 -5.62, 2.53 -7.82 C3.72 -10.02, 5.62 -12.09, 7.13 -13.23 C8.64 -14.36, 10.87 -14.38, 11.62 -14.61 M0 0 C0.42 -1.3, 1.34 -5.62, 2.53 -7.82 C3.72 -10.02, 5.62 -12.09, 7.13 -13.23 C8.64 -14.36, 10.87 -14.38, 11.62 -14.61" stroke="#85d8ff" stroke-width="2" fill="none"></path></g></g><mask></mask><g stroke-linecap="round"><g transform="translate(29.937804002953044 112.85251024911844) rotate(130.30715139004616 5.807558139289 -7.302573105838661)"><path d="M0 0 C0.42 -1.3, 1.34 -5.62, 2.53 -7.82 C3.72 -10.02, 5.62 -12.09, 7.13 -13.23 C8.64 -14.36, 10.87 -14.38, 11.62 -14.61 M0 0 C0.42 -1.3, 1.34 -5.62, 2.53 -7.82 C3.72 -10.02, 5.62 -12.09, 7.13 -13.23 C8.64 -14.36, 10.87 -14.38, 11.62 -14.61" stroke="#85d8ff" stroke-width="2" fill="none"></path></g></g><mask></mask><g stroke-linecap="round"><g transform="translate(31.656600740196723 114.85725022475083) rotate(153.04868759029264 5.807558139289 -7.302573105838661)"><path d="M0 0 C0.42 -1.3, 1.34 -5.62, 2.53 -7.82 C3.72 -10.02, 5.62 -12.09, 7.13 -13.23 C8.64 -14.36, 10.87 -14.38, 11.62 -14.61 M0 0 C0.42 -1.3, 1.34 -5.62, 2.53 -7.82 C3.72 -10.02, 5.62 -12.09, 7.13 -13.23 C8.64 -14.36, 10.87 -14.38, 11.62 -14.61" stroke="#ffffff" stroke-width="2" fill="none"></path></g></g><mask></mask><g stroke-linecap="round"><g transform="translate(32.29116895112986 117.03990228905974) rotate(177.1344913188365 5.807558139289 -7.302573105838661)"><path d="M0 0 C0.42 -1.3, 1.34 -5.62, 2.53 -7.82 C3.72 -10.02, 5.62 -12.09, 7.13 -13.23 C8.64 -14.36, 10.87 -14.38, 11.62 -14.61 M0 0 C0.42 -1.3, 1.34 -5.62, 2.53 -7.82 C3.72 -10.02, 5.62 -12.09, 7.13 -13.23 C8.64 -14.36, 10.87 -14.38, 11.62 -14.61" stroke="#ffffff" stroke-width="2" fill="none"></path></g></g><mask></mask><g stroke-linecap="round"><g transform="translate(27.502516378825476 112.13226598823047) rotate(106.0215738795159 5.807558139289 -7.302573105838661)"><path d="M0 0 C0.42 -1.3, 1.34 -5.62, 2.53 -7.82 C3.72 -10.02, 5.62 -12.09, 7.13 -13.23 C8.64 -14.36, 10.87 -14.38, 11.62 -14.61 M0 0 C0.42 -1.3, 1.34 -5.62, 2.53 -7.82 C3.72 -10.02, 5.62 -12.09, 7.13 -13.23 C8.64 -14.36, 10.87 -14.38, 11.62 -14.61" stroke="#85d8ff" stroke-width="2" fill="none"></path></g></g><mask></mask><g stroke-linecap="round"><g transform="translate(24.944672870339787 111.61746339491367) rotate(83.28003767926951 5.807558139289 -7.302573105838661)"><path d="M0 0 C0.42 -1.3, 1.34 -5.62, 2.53 -7.82 C3.72 -10.02, 5.62 -12.09, 7.13 -13.23 C8.64 -14.36, 10.87 -14.38, 11.62 -14.61 M0 0 C0.42 -1.3, 1.34 -5.62, 2.53 -7.82 C3.72 -10.02, 5.62 -12.09, 7.13 -13.23 C8.64 -14.36, 10.87 -14.38, 11.62 -14.61" stroke="#85d8ff" stroke-width="2" fill="none"></path></g></g><mask></mask><g stroke-linecap="round"><g transform="translate(22.97062729714912 112.61945154316084) rotate(59.19423395072566 5.807558139289 -7.302573105838661)"><path d="M0 0 C0.42 -1.3, 1.34 -5.62, 2.53 -7.82 C3.72 -10.02, 5.62 -12.09, 7.13 -13.23 C8.64 -14.36, 10.87 -14.38, 11.62 -14.61 M0 0 C0.42 -1.3, 1.34 -5.62, 2.53 -7.82 C3.72 -10.02, 5.62 -12.09, 7.13 -13.23 C8.64 -14.36, 10.87 -14.38, 11.62 -14.61" stroke="#85d8ff" stroke-width="2" fill="none"></path></g></g><mask></mask><g stroke-linecap="round"><g transform="translate(21.15442995373212 114.42599650892379) rotate(36.452697750479075 5.807558139289 -7.302573105838661)"><path d="M0 0 C0.42 -1.3, 1.34 -5.62, 2.53 -7.82 C3.72 -10.02, 5.62 -12.09, 7.13 -13.23 C8.64 -14.36, 10.87 -14.38, 11.62 -14.61 M0 0 C0.42 -1.3, 1.34 -5.62, 2.53 -7.82 C3.72 -10.02, 5.62 -12.09, 7.13 -13.23 C8.64 -14.36, 10.87 -14.38, 11.62 -14.61" stroke="#85d8ff" stroke-width="2" fill="none"></path></g></g><mask></mask><g stroke-linecap="round"><g transform="translate(30.979967181902225 121.77606505923796) rotate(219.31820643164278 5.486419783845747 -7.155679152324751)"><path d="M0.9 -1.13 C1.5 -2.42, 2.34 -6.09, 3.19 -8.3 C4.03 -10.5, 4.67 -13.21, 5.98 -14.36 C7.29 -15.5, 10.06 -15.16, 11.05 -15.16 M-0.08 0.9 C0.45 -0.18, 1.19 -4.59, 2.59 -7.01 C3.98 -9.43, 6.87 -12.41, 8.27 -13.63 C9.67 -14.86, 10.6 -14.32, 11 -14.35" stroke="#85d8ff" stroke-width="2" fill="none"></path></g></g><mask></mask><g stroke-linecap="round"><g transform="translate(32.055429855934676 119.421516878403) rotate(196.5766702313963 5.807558139289 -7.302573105838661)"><path d="M0 0 C0.42 -1.3, 1.34 -5.62, 2.53 -7.82 C3.72 -10.02, 5.62 -12.09, 7.13 -13.23 C8.64 -14.36, 10.87 -14.38, 11.62 -14.61 M0 0 C0.42 -1.3, 1.34 -5.62, 2.53 -7.82 C3.72 -10.02, 5.62 -12.09, 7.13 -13.23 C8.64 -14.36, 10.87 -14.38, 11.62 -14.61" stroke="#85d8ff" stroke-width="2" fill="none"></path></g></g><mask></mask><g stroke-linecap="round"><g transform="translate(155.03405710527977 112.21766875905496) rotate(0 84.19293030171656 -11.939321909513211)"><path d="M0.99 0.01 C29.04 -3.81, 140.35 -19.78, 168.33 -23.88 M0.05 -1.04 C27.98 -4.59, 139.47 -18.73, 167.56 -22.55" stroke="#1e1e1e" stroke-width="2" fill="none"></path></g><g transform="translate(155.03405710527977 112.21766875905496) rotate(0 84.19293030171656 -11.939321909513211)"><path d="M140.95 -8.17 C148.43 -11.64, 155.18 -19, 167.4 -21.2 M140.83 -9.32 C148.94 -12.25, 157.21 -17.2, 166.59 -23.21" stroke="#1e1e1e" stroke-width="2" fill="none"></path></g><g transform="translate(155.03405710527977 112.21766875905496) rotate(0 84.19293030171656 -11.939321909513211)"><path d="M138.29 -28.52 C146.4 -25.88, 153.95 -27.1, 167.4 -21.2 M138.17 -29.67 C146.95 -26.54, 156.01 -25.41, 166.59 -23.21" stroke="#1e1e1e" stroke-width="2" fill="none"></path></g></g><mask></mask><g stroke-linecap="round"><g transform="translate(318.34112680356316 62.26804129806311) rotate(0 -83.0797569897585 18.468182815093684)"><path d="M0.17 0.95 C-27.57 6.82, -137.76 29.66, -165.25 35.53 M-1.2 0.4 C-29.22 6.36, -138.96 30.38, -166.33 36.54" stroke="#1e1e1e" stroke-width="2" fill="none"></path></g><g transform="translate(318.34112680356316 62.26804129806311) rotate(0 -83.0797569897585 18.468182815093684)"><path d="M-139.44 20.01 C-152.7 27.21, -161.61 33.05, -166.95 38.08 M-141.89 20.24 C-148.38 25.55, -154.68 29.16, -165.47 36.79" stroke="#1e1e1e" stroke-width="2" fill="none"></path></g><g transform="translate(318.34112680356316 62.26804129806311) rotate(0 -83.0797569897585 18.468182815093684)"><path d="M-135.01 40.05 C-150.07 39.31, -160.74 37.21, -166.95 38.08 M-137.46 40.28 C-145.11 39.99, -152.64 37.99, -165.47 36.79" stroke="#1e1e1e" stroke-width="2" fill="none"></path></g></g><mask></mask><g transform="translate(226.03405710527977 20.719551316544198) rotate(0 37.68333435058594 20)"><text x="0" y="0" font-family="Virgil, Segoe UI Emoji" font-size="16px" fill="#1e1e1e" text-anchor="start" style="white-space: pre;" direction="ltr" dominant-baseline="text-before-edge">Unblock</text><text x="0" y="20" font-family="Virgil, Segoe UI Emoji" font-size="16px" fill="#1e1e1e" text-anchor="start" style="white-space: pre;" direction="ltr" dominant-baseline="text-before-edge">Commands</text></g><g transform="translate(169.03405710527977 118.7195513165442) rotate(0 21.41666603088379 20)"><text x="0" y="0" font-family="Virgil, Segoe UI Emoji" font-size="16px" fill="#1e1e1e" text-anchor="start" style="white-space: pre;" direction="ltr" dominant-baseline="text-before-edge">Raw</text><text x="0" y="20" font-family="Virgil, Segoe UI Emoji" font-size="16px" fill="#1e1e1e" text-anchor="start" style="white-space: pre;" direction="ltr" dominant-baseline="text-before-edge">Data</text></g><g stroke-linecap="round" transform="translate(17.03405710527977 231.7195513165442) rotate(0 153 93.5)"><path d="M32.61 0.47 L273.85 1.49 L281.96 1.21 L293.18 5.62 L302.46 11.37 L305.74 16.55 L305.07 30.52 L307.32 153.24 L307.4 162.07 L300.37 172.55 L294.22 182.76 L289.98 184.13 L274.96 186.2 L31.41 187.01 L24.71 187.83 L11.57 181.04 L2.7 174.42 L-1.48 164.45 L-0.67 23.11 L2.5 18.76 L8.15 9.37 L17.88 0.88 L32.38 -1.49" stroke="none" stroke-width="0" fill="#caced175"></path><path d="M32 0 M32 0 C113.58 0.67, 193.46 -0.58, 274 0 M32 0 C116.03 2.05, 198.71 2.38, 274 0 M274 0 C295.25 -0.78, 305.55 12.08, 306 32 M274 0 C296.76 1.18, 303.79 11.1, 306 32 M306 32 C305.73 58.1, 306.03 79.79, 306 155 M306 32 C305.98 78.31, 305.83 124.37, 306 155 M306 155 C307.67 175.56, 295.08 188.99, 274 187 M306 155 C304.57 177.46, 295.71 185.2, 274 187 M274 187 C207.28 184.09, 141.09 185.9, 32 187 M274 187 C189.3 184.65, 103.83 184.48, 32 187 M32 187 C10.39 186.5, 0.6 176, 0 155 M32 187 C8.61 184.8, 1.05 178.33, 0 155 M0 155 C-0.42 125.18, 1.36 92.11, 0 32 M0 155 C1.82 114.24, 0.55 71.75, 0 32 M0 32 C-1.89 11.27, 9.37 1.17, 32 0 M0 32 C-1.36 10.86, 12.67 0.17, 32 0" stroke="#1e1e1e" stroke-width="2" fill="none"></path></g><g stroke-linecap="round"><g transform="translate(483.03405710527977 141.7195513165442) rotate(0 -13.708377574464578 52.71483831817031)"><path d="M0.06 0.99 C4 8.65, 31.94 28.18, 23.26 45.28 C14.59 62.38, -39.46 93.95, -51.97 103.6 M-1.37 0.47 C2.47 7.81, 30.95 25.89, 22.46 43.3 C13.96 60.71, -40.09 94.83, -52.34 104.96" stroke="#1e1e1e" stroke-width="2" fill="none"></path></g><g transform="translate(483.03405710527977 141.7195513165442) rotate(0 -13.708377574464578 52.71483831817031)"><path d="M-33.9 80.53 C-39.76 88.03, -44.61 95.03, -52.95 104.87 M-35.27 81.01 C-38.46 85.68, -43.98 90.55, -52.17 104.21" stroke="#1e1e1e" stroke-width="2" fill="none"></path></g><g transform="translate(483.03405710527977 141.7195513165442) rotate(0 -13.708377574464578 52.71483831817031)"><path d="M-21.84 97.13 C-30.85 100.17, -38.94 102.7, -52.95 104.87 M-23.21 97.62 C-29.3 98.57, -37.56 99.65, -52.17 104.21" stroke="#1e1e1e" stroke-width="2" fill="none"></path></g></g><mask></mask><g stroke-linecap="round"><g transform="translate(439.97022731804566 266.27982518682575) rotate(0 47.22109568251773 -76.78013693514077)"><path d="M0 0 C15.68 -14.09, 88.55 -58.97, 94.06 -84.56 C99.57 -110.15, 43.23 -142.06, 33.06 -153.56 M0 0 C15.68 -14.09, 88.55 -58.97, 94.06 -84.56 C99.57 -110.15, 43.23 -142.06, 33.06 -153.56" stroke="#1e1e1e" stroke-width="2" fill="none"></path></g><g transform="translate(439.97022731804566 266.27982518682575) rotate(0 47.22109568251773 -76.78013693514077)"><path d="M61.43 -143.8 C53.79 -146.43, 46.15 -149.06, 33.06 -153.56 M61.43 -143.8 C54.04 -146.34, 46.65 -148.88, 33.06 -153.56" stroke="#1e1e1e" stroke-width="2" fill="none"></path></g><g transform="translate(439.97022731804566 266.27982518682575) rotate(0 47.22109568251773 -76.78013693514077)"><path d="M48.52 -127.85 C44.36 -134.77, 40.19 -141.7, 33.06 -153.56 M48.52 -127.85 C44.49 -134.55, 40.47 -141.24, 33.06 -153.56" stroke="#1e1e1e" stroke-width="2" fill="none"></path></g></g><mask></mask><g transform="translate(451.617391074396 161.7195513165442) rotate(0 21.41666603088379 20)"><text x="0" y="0" font-family="Virgil, Segoe UI Emoji" font-size="16px" fill="#1e1e1e" text-anchor="start" style="white-space: pre;" direction="ltr" dominant-baseline="text-before-edge">Raw</text><text x="0" y="20" font-family="Virgil, Segoe UI Emoji" font-size="16px" fill="#1e1e1e" text-anchor="start" style="white-space: pre;" direction="ltr" dominant-baseline="text-before-edge">Data</text></g><g transform="translate(469.35072275469383 243.7195513165442) rotate(0 37.68333435058594 20)"><text x="0" y="0" font-family="Virgil, Segoe UI Emoji" font-size="16px" fill="#1e1e1e" text-anchor="start" style="white-space: pre;" direction="ltr" dominant-baseline="text-before-edge">Unblock</text><text x="0" y="20" font-family="Virgil, Segoe UI Emoji" font-size="16px" fill="#1e1e1e" text-anchor="start" style="white-space: pre;" direction="ltr" dominant-baseline="text-before-edge">Commands</text></g><g stroke-linecap="round" transform="translate(340.03405710527977 244.7195513165442) rotate(0 43.5 39.5)"><path d="M17.76 -1.1 L71.84 1.94 L82.31 3.25 L86.66 10.72 L87.13 19.83 L88.4 65.71 L80.27 74.32 L76.26 77.44 L67.62 78.06 L16.31 78.37 L4.8 72.9 L1.14 65.41 L-0.44 13.25 L3.24 5.02 L11.59 2.83 L20.69 -0.67" stroke="none" stroke-width="0" fill="#caced175"></path><path d="M19.75 0 M19.75 0 C29.61 1.2, 41.13 1.21, 67.25 0 M19.75 0 C38.44 0.79, 56.21 -0.42, 67.25 0 M67.25 0 C78.58 -0.02, 86.46 6.91, 87 19.75 M67.25 0 C81.43 -0.8, 86.22 6.43, 87 19.75 M87 19.75 C87.63 33.2, 88.05 42.21, 87 59.25 M87 19.75 C87.09 32.17, 87.67 46.24, 87 59.25 M87 59.25 C86.48 73.46, 82.09 77.54, 67.25 79 M87 59.25 C84.88 74.61, 78.52 77.38, 67.25 79 M67.25 79 C58.03 78.89, 45.45 80.74, 19.75 79 M67.25 79 C52 80, 35.34 78.21, 19.75 79 M19.75 79 C6.9 77.5, -0.48 72.61, 0 59.25 M19.75 79 C8.04 80.44, 0.42 74.47, 0 59.25 M0 59.25 C0.53 50.29, 0.75 40.25, 0 19.75 M0 59.25 C0.67 44.58, 0.22 27.68, 0 19.75 M0 19.75 C-0.51 6.91, 8.2 -1.71, 19.75 0 M0 19.75 C-0.49 5.9, 6.98 -1.55, 19.75 0" stroke="#1e1e1e" stroke-width="2" fill="none"></path></g><g transform="translate(346.8173899299868 264.2195513165442) rotate(0 36.71666717529297 20)"><text x="36.71666717529297" y="0" font-family="Virgil, Segoe UI Emoji" font-size="16px" fill="#1e1e1e" text-anchor="middle" style="white-space: pre;" direction="ltr" dominant-baseline="text-before-edge">Read </text><text x="36.71666717529297" y="20" font-family="Virgil, Segoe UI Emoji" font-size="16px" fill="#1e1e1e" text-anchor="middle" style="white-space: pre;" direction="ltr" dominant-baseline="text-before-edge">Until API</text></g><g stroke-linecap="round" transform="translate(28.03405710527977 302.7195513165442) rotate(0 138 53.5)"><path d="M28.2 0.48 L249.91 0.7 L261.2 3.57 L269.82 4.86 L273.79 12.32 L276.22 19.76 L275.49 80.58 L275.94 90.24 L271.81 95.96 L265.9 101.89 L261.57 106.7 L249.34 105.97 L27.55 105.64 L15.48 104.33 L6.32 100.12 L3.08 98.2 L0.41 86.13 L-0.54 19.46 L-0.26 15.99 L6.9 4.92 L16.47 2.53 L26.56 -0.23" stroke="none" stroke-width="0" fill="#caced175"></path><path d="M26.75 0 M26.75 0 C81 -2.09, 136.23 -1.2, 249.25 0 M26.75 0 C104.14 -0.37, 183.05 -1.42, 249.25 0 M249.25 0 C269.01 0.93, 275.57 7.86, 276 26.75 M249.25 0 C267.38 0.13, 276.4 10.3, 276 26.75 M276 26.75 C277.82 36.35, 277.55 47.93, 276 80.25 M276 26.75 C276.36 39.74, 277.42 54.4, 276 80.25 M276 80.25 C276.6 97.36, 267.8 106.66, 249.25 107 M276 80.25 C274.3 97.78, 266.41 107.25, 249.25 107 M249.25 107 C171.59 107.27, 92.47 105.14, 26.75 107 M249.25 107 C161.37 106.53, 75.18 106.64, 26.75 107 M26.75 107 C10.2 105.76, 0.81 97.1, 0 80.25 M26.75 107 C9.25 107.24, -1.21 97.21, 0 80.25 M0 80.25 C1.35 62.05, 0.94 44.86, 0 26.75 M0 80.25 C-1.06 62.85, 0.07 46.04, 0 26.75 M0 26.75 C-1.57 8.46, 9.53 1.64, 26.75 0 M0 26.75 C-0.56 7.47, 7.83 -2.18, 26.75 0" stroke="#1e1e1e" stroke-width="2" fill="none"></path></g><g transform="translate(247.50072428057274 307.7195513165442) rotate(0 25.766666412353516 10)"><text x="51.53333282470703" y="0" font-family="Virgil, Segoe UI Emoji" font-size="16px" fill="#1e1e1e" text-anchor="end" style="white-space: pre;" direction="ltr" dominant-baseline="text-before-edge">Plugins</text></g><g stroke-linecap="round"><g transform="translate(333.3284479443323 268.0323604916029) rotate(0 -116.67652283592244 47.61028509939683)"><path d="M0.13 0.53 C-42.21 1.4, -210.9 -9.26, -254.1 4.21 C-297.3 17.68, -273.82 67.38, -259.08 81.35 C-244.34 95.31, -194.31 86.45, -165.67 88.01 C-137.02 89.56, -117.84 89.19, -87.24 90.68 C-56.63 92.17, -3.98 100.62, 17.97 96.96 C39.92 93.31, 40.01 73.54, 44.45 68.76 M-1.26 -0.24 C-43.21 0.89, -208.73 -8.29, -251.81 5.5 C-294.89 19.29, -274.1 68.61, -259.74 82.48 C-245.37 96.36, -194.12 87.84, -165.61 88.75 C-137.1 89.66, -119.53 86.72, -88.68 87.93 C-57.82 89.15, -2.84 99.48, 19.52 96.07 C41.88 92.66, 41.39 72.17, 45.49 67.46" stroke="#1e1e1e" stroke-width="2" fill="none"></path></g><g transform="translate(333.3284479443323 268.0323604916029) rotate(0 -116.67652283592244 47.61028509939683)"><path d="M45.42 85.26 C44.26 81.23, 44.74 74.66, 44.4 67.55 M45.17 86.6 C45.62 78.94, 45.19 71.24, 46.32 68.04" stroke="#1e1e1e" stroke-width="2" fill="none"></path></g><g transform="translate(333.3284479443323 268.0323604916029) rotate(0 -116.67652283592244 47.61028509939683)"><path d="M33.36 80.21 C35.73 77.67, 39.77 72.59, 44.4 67.55 M33.12 81.55 C38.19 75.8, 42.38 70.03, 46.32 68.04" stroke="#1e1e1e" stroke-width="2" fill="none"></path></g></g><mask></mask><g transform="translate(27.03405710527977 243.2195513165442) rotate(0 42.016666412353516 12.5)"><text x="0" y="0" font-family="Virgil, Segoe UI Emoji" font-size="20px" fill="#1e1e1e" text-anchor="start" style="white-space: pre;" direction="ltr" dominant-baseline="text-before-edge">Readfish</text></g><g stroke-linecap="round" transform="translate(38.65905710527977 340.7195513165442) rotate(0 49 30)"><path d="M16.28 -1.24 L83.81 -0.98 L92.43 2.32 L94.84 5.1 L98.59 12.81 L96.02 46.7 L95.94 55.44 L93.26 58.32 L84.47 58.48 L13.67 59.6 L6.79 58.26 L0.53 53.68 L0.84 50.16 L-0.25 10.23 L2.81 1.85 L6.82 0.8 L16.14 0.73" stroke="none" stroke-width="0" fill="#caced175"></path><path d="M15 0 M15 0 C33.07 -2.02, 47.03 -0.57, 83 0 M15 0 C35.51 -0.15, 56.76 0.4, 83 0 M83 0 C94.45 -1.16, 99.47 6.62, 98 15 M83 0 C94.06 -0.71, 97.82 3.28, 98 15 M98 15 C97.93 21.3, 98.13 28.16, 98 45 M98 15 C97.3 21.77, 97.23 29.24, 98 45 M98 45 C96.1 56.86, 91.95 61.14, 83 60 M98 45 C99.1 56.5, 92.19 60.66, 83 60 M83 60 C63.09 58.98, 43.5 60.46, 15 60 M83 60 C58.21 59.69, 31.98 60.09, 15 60 M15 60 C6.63 60.57, -1.21 53.13, 0 45 M15 60 C7.04 62.11, 2.02 57.24, 0 45 M0 45 C-2.08 34.97, -1.07 24.77, 0 15 M0 45 C-1 36.82, -0.16 27.51, 0 15 M0 15 C-0.17 3.72, 5.17 1.71, 15 0 M0 15 C1.06 4.45, 5.06 0.79, 15 0" stroke="#1e1e1e" stroke-width="2" fill="none"></path></g><g transform="translate(46.40905710527977 360.7195513165442) rotate(0 41.25 10)"><text x="41.25" y="0" font-family="Virgil, Segoe UI Emoji" font-size="16px" fill="#1e1e1e" text-anchor="middle" style="white-space: pre;" direction="ltr" dominant-baseline="text-before-edge">Basecaller</text></g><g stroke-linecap="round" transform="translate(188.53405710527977 342.7195513165442) rotate(0 48.5 28)"><path d="M13.72 -1.48 L84.56 0.2 L92.39 1.8 L93.75 5.64 L98.49 11.64 L96.53 42.06 L95.72 51.67 L89.76 52.67 L84.37 57.21 L15.22 57.04 L3.93 55.19 L3.02 51.27 L0.08 43.68 L-1.35 12.26 L2.57 7.12 L5.69 1.59 L14.86 1.01" stroke="none" stroke-width="0" fill="#caced175"></path><path d="M14 0 M14 0 C41.6 -0.71, 67.33 -1.47, 83 0 M14 0 C31.56 -0.05, 49.16 0.52, 83 0 M83 0 C93.88 0.1, 95.6 3.28, 97 14 M83 0 C90.98 -2.07, 96.76 3.37, 97 14 M97 14 C96.29 24.45, 97.45 34.58, 97 42 M97 14 C97.33 20.86, 96.95 25.18, 97 42 M97 42 C97.89 50.08, 91.13 54.64, 83 56 M97 42 C95.84 53.12, 91.54 54.55, 83 56 M83 56 C62.74 56.99, 40.79 57.59, 14 56 M83 56 C68.34 57.17, 54.07 55.54, 14 56 M14 56 C6.35 54.13, 0.47 50.36, 0 42 M14 56 C4.85 54.34, -1.14 49.05, 0 42 M0 42 C0.19 34.37, 1.14 22.26, 0 14 M0 42 C0.01 34.19, -0.63 27, 0 14 M0 14 C-0.73 6.33, 6.36 -1.84, 14 0 M0 14 C-0.92 4.11, 5.42 2.15, 14 0" stroke="#1e1e1e" stroke-width="2" fill="none"></path></g><g transform="translate(211.48405786821922 360.3581055334116) rotate(0 25.549999237060547 10.361445783132524)"><text x="25.549999237060547" y="0" font-family="Virgil, Segoe UI Emoji" font-size="16.578313253012045px" fill="#1e1e1e" text-anchor="middle" style="white-space: pre;" direction="ltr" dominant-baseline="text-before-edge">Aligner</text></g><g transform="translate(11.700721228814928 65.7195513165442) rotate(0 33.66666793823242 12.5)"><text x="67.33333587646484" y="0" font-family="Virgil, Segoe UI Emoji" font-size="20px" fill="#1e1e1e" text-anchor="end" style="white-space: pre;" direction="ltr" dominant-baseline="text-before-edge">MinION</text></g></svg>