<?xml version="1.0" encoding="UTF-8" standalone="no"?>
<!-- Created with Inkscape (http://www.inkscape.org/) -->

<svg
   version="1.1"
   id="svg1"
   width="375.84335"
   height="137.21466"
   viewBox="0 0 375.84335 137.21466"
   sodipodi:docname="readfish_log_wip.svg"
   inkscape:version="1.3.2 (1:1.3.2+202311252150+091e20ef0f)"
   xmlns:inkscape="http://www.inkscape.org/namespaces/inkscape"
   xmlns:sodipodi="http://sodipodi.sourceforge.net/DTD/sodipodi-0.dtd"
   xmlns="http://www.w3.org/2000/svg"
   xmlns:svg="http://www.w3.org/2000/svg">
  <defs
     id="defs1">
    <inkscape:path-effect
       effect="skeletal"
       id="path-effect62"
       is_visible="true"
       lpeversion="1"
       pattern="M 0,0 H 1"
       copytype="single_stretched"
       prop_scale="1"
       scale_y_rel="false"
       spacing="0"
       normal_offset="0"
       tang_offset="0"
       prop_units="false"
       vertical_pattern="false"
       hide_knot="false"
       fuse_tolerance="0" />
    <inkscape:path-effect
       effect="fill_between_many"
       method="originald"
       linkedpaths="#path14,0,1"
       id="path-effect16"
       is_visible="true"
       lpeversion="0"
       join="true"
       close="true"
       autoreverse="true" />
    <inkscape:path-effect
       effect="fill_between_many"
       method="originald"
       linkedpaths="#path14,0,1"
       id="path-effect17"
       is_visible="true"
       lpeversion="0"
       join="true"
       close="true"
       autoreverse="true" />
    <inkscape:path-effect
       effect="fill_between_many"
       method="originald"
       linkedpaths="#path10,0,1"
       id="path-effect49"
       is_visible="true"
       lpeversion="0"
       join="true"
       close="true"
       autoreverse="true" />
    <inkscape:path-effect
       effect="fill_between_many"
       method="originald"
       linkedpaths="#path11,0,1"
       id="path-effect50"
       is_visible="true"
       lpeversion="0"
       join="true"
       close="true"
       autoreverse="true" />
    <inkscape:path-effect
       effect="fill_between_many"
       method="originald"
       linkedpaths="#path15,0,1"
       id="path-effect51"
       is_visible="true"
       lpeversion="0"
       join="true"
       close="true"
       autoreverse="true" />
    <inkscape:path-effect
       effect="fill_between_many"
       method="originald"
       linkedpaths="#path12,0,1"
       id="path-effect52"
       is_visible="true"
       lpeversion="0"
       join="true"
       close="true"
       autoreverse="true" />
    <inkscape:path-effect
       effect="fill_between_many"
       method="originald"
       linkedpaths="#path13,0,1"
       id="path-effect53"
       is_visible="true"
       lpeversion="0"
       join="true"
       close="true"
       autoreverse="true" />
    <inkscape:path-effect
       effect="fill_between_many"
       method="originald"
       linkedpaths="#path54,0,1"
       id="path-effect55"
       is_visible="true"
       lpeversion="0"
       join="true"
       close="true"
       autoreverse="true" />
  </defs>
  <sodipodi:namedview
     id="namedview1"
     pagecolor="#ffffff"
     bordercolor="#111111"
     borderopacity="1"
     inkscape:showpageshadow="0"
     inkscape:pageopacity="0"
     inkscape:pagecheckerboard="1"
     inkscape:deskcolor="#d1d1d1"
     inkscape:zoom="3.6087162"
     inkscape:cx="156.01116"
     inkscape:cy="169.31229"
     inkscape:window-width="3780"
     inkscape:window-height="2262"
     inkscape:window-x="30"
     inkscape:window-y="108"
     inkscape:window-maximized="1"
     inkscape:current-layer="g1" />
  <g
     inkscape:groupmode="layer"
     inkscape:label="Image"
     id="g1">
    <path
       inkscape:original-d="M 0,0"
       inkscape:path-effect="#path-effect51"
       d="M 0,0"
       id="path51" />
    <path
       inkscape:original-d="M 0,0"
       inkscape:path-effect="#path-effect16"
       d="M 0,0"
       id="path16" />
    <path
       inkscape:original-d="M 0,0"
       inkscape:path-effect="#path-effect17"
       d="M 0,0"
       id="path17"
       style="fill:none" />
    <path
       style="fill:#29ade0;fill-opacity:1"
       d="m 300.08406,125.2723 c -8.73425,-2.07349 -10.8745,-6.6609 -4.3655,-9.35701 4.61809,-1.91288 8.63938,-0.87021 7.55386,1.95862 -1.1922,3.10681 0.68355,3.44622 19.1032,3.4567 17.77627,0.0101 20.70023,-0.56788 20.70023,-4.09191 0,-2.72581 4.74238,-3.09319 7.97055,-0.61746 9.44766,7.24555 -29.22762,13.81083 -50.96234,8.65106 z m -3.00822,-5.36693 c 0,-0.73334 -0.6,-1.33334 -1.33333,-1.33334 -0.73333,0 -1.33333,0.6 -1.33333,1.33334 0,0.73333 0.6,1.33333 1.33333,1.33333 0.73333,0 1.33333,-0.6 1.33333,-1.33333 z m 53.33334,0 c 0,-0.73334 -0.6,-1.33334 -1.33333,-1.33334 -0.73334,0 -1.33334,0.6 -1.33334,1.33334 0,0.73333 0.6,1.33333 1.33334,1.33333 0.73333,0 1.33333,-0.6 1.33333,-1.33333 z"
       id="path5" />
    <path
       style="fill:#000000"
       d="m 297.74251,135.8442 c -38.82806,-6.05287 -36.92398,-30.40461 2.43679,-31.16473 11.61424,-0.22429 7.69324,7.39127 -4.63212,8.99673 -37.8338,4.92812 0.7683,18.40224 41.32564,14.42477 30.8505,-3.02551 37.83017,-10.60419 13.22368,-14.35857 -6.61865,-1.00985 -9.02065,-2.56962 -9.02065,-5.85764 0,-3.52474 2.83665,-3.99102 12.20649,-2.00648 18.82099,3.9863 25.1572,9.44731 21.62906,18.6415 -3.45003,8.99063 -49.13421,15.69472 -77.16889,11.32442 z m 55.60188,-3.32865 c 29.2481,-6.15253 26.33427,-21.90094 -4.73298,-25.5804 -10.80437,-1.27961 -7.08374,2.51068 5.64417,5.74985 28.74721,7.31599 9.99443,17.794 -31.8464,17.794 -43.29895,0 -61.51044,-11.42008 -29.27136,-18.35551 13.57753,-2.92087 16.52542,-6.36314 4.44958,-5.19581 -23.68854,2.2899 -34.873,13.65102 -20.6047,20.93017 14.85046,7.57614 51.77982,9.82865 76.36169,4.6577 z"
       id="path4" />
    <path
       style="fill:#29ade0;fill-opacity:1;stroke-width:0.489264"
       d=""
       id="path19" />
    <path
       style="fill:#29ade0;fill-opacity:1;stroke-width:0.493461"
       d=""
       id="path47" />
    <path
       inkscape:original-d="M 0,0"
       inkscape:path-effect="#path-effect55"
       d="m 311.27394,136.99777 c -8.57875,-0.33615 -16.65383,-1.49971 -22.9553,-3.3077 -12.00664,-3.44489 -19.06022,-9.32282 -18.53946,-15.4494 0.46021,-5.41412 7.07528,-10.05147 17.25499,-12.09623 5.29176,-1.06293 12.48611,-1.64421 15.60548,-1.26086 4.36382,0.53628 5.59819,2.52372 3.01176,4.84914 -2.32491,2.09029 -5.62917,3.21079 -12.41805,4.21106 -5.49166,0.80913 -9.5566,1.95127 -11.56525,3.24952 -1.56368,1.01065 -1.99963,2.21886 -1.24638,3.45425 1.40464,2.30371 8.59624,4.87873 17.98685,6.44034 14.23909,2.3679 31.00628,2.40158 46.75244,0.0939 9.89126,-1.44961 16.59764,-3.48649 18.95258,-5.75636 0.80092,-0.77198 0.87115,-0.90587 0.87115,-1.66085 0,-0.69941 -0.0955,-0.92693 -0.64413,-1.53416 -1.58767,-1.75736 -6.15407,-3.23361 -14.0921,-4.55577 -5.90392,-0.98336 -8.18977,-2.13972 -8.87256,-4.48844 -0.53576,-1.84296 -0.0485,-3.30227 1.32519,-3.96917 1.55866,-0.75667 5.32192,-0.4128 12.06981,1.10289 11.72024,2.63258 18.0613,5.86445 20.16957,10.27989 0.64704,1.35514 0.65781,1.41214 0.65781,3.48286 0,1.86719 -0.0578,2.27361 -0.51104,3.59513 -0.4351,1.26852 -0.65671,1.63525 -1.49117,2.46764 -5.45227,5.43878 -26.07659,9.95044 -49.6623,10.86384 -4.9521,0.19178 -7.53086,0.18943 -12.65989,-0.0115 z"
       id="path55"
       style="fill:#29ade0;fill-opacity:1" />
    <path
       style="fill:#29ade0;fill-opacity:1;stroke-width:0.491558"
       d="m 311.27394,136.99777 c -8.57875,-0.33615 -16.65383,-1.49971 -22.9553,-3.3077 -12.00664,-3.44489 -19.06022,-9.32282 -18.53946,-15.4494 0.46021,-5.41412 7.07528,-10.05147 17.25499,-12.09623 5.29176,-1.06293 12.48611,-1.64421 15.60548,-1.26086 4.36382,0.53628 5.59819,2.52372 3.01176,4.84914 -2.32491,2.09029 -5.62917,3.21079 -12.41805,4.21106 -5.49166,0.80913 -9.5566,1.95127 -11.56525,3.24952 -1.56368,1.01065 -1.99963,2.21886 -1.24638,3.45425 1.40464,2.30371 8.59624,4.87873 17.98685,6.44034 14.23909,2.3679 31.00628,2.40158 46.75244,0.0939 9.89126,-1.44961 16.59764,-3.48649 18.95258,-5.75636 0.80092,-0.77198 0.87115,-0.90587 0.87115,-1.66085 0,-0.69941 -0.0955,-0.92693 -0.64413,-1.53416 -1.58767,-1.75736 -6.15407,-3.23361 -14.0921,-4.55577 -5.90392,-0.98336 -8.18977,-2.13972 -8.87256,-4.48844 -0.53576,-1.84296 -0.0485,-3.30227 1.32519,-3.96917 1.55866,-0.75667 5.32192,-0.4128 12.06981,1.10289 11.72024,2.63258 18.0613,5.86445 20.16957,10.27989 0.64704,1.35514 0.65781,1.41214 0.65781,3.48286 0,1.86719 -0.0578,2.27361 -0.51104,3.59513 -0.4351,1.26852 -0.65671,1.63525 -1.49117,2.46764 -5.45227,5.43878 -26.07659,9.95044 -49.6623,10.86384 -4.9521,0.19178 -7.53086,0.18943 -12.65989,-0.0115 z m 22.48404,-1.91883 c 16.27437,-1.0167 28.58823,-3.88076 34.97519,-8.13481 8.51495,-5.67141 5.96165,-12.84733 -6.06352,-17.04124 -5.17232,-1.8039 -12.98216,-3.24411 -17.5592,-3.23809 -2.11806,0.003 -2.80803,0.19552 -2.89671,0.80919 -0.17995,1.24518 4.04831,3.10936 12.08509,5.32813 4.64332,1.28192 7.16631,2.17651 9.49971,3.36835 2.58158,1.31862 4.16854,2.94105 4.16854,4.26174 0,2.97361 -6.03569,5.88076 -16.01227,7.71249 -12.02612,2.20802 -31.08711,2.85398 -46.44126,1.57384 -13.53676,-1.12861 -23.71962,-3.68343 -27.14553,-6.81065 -1.13855,-1.03928 -1.44977,-1.60058 -1.44977,-2.61472 0,-2.81473 5.2659,-5.51993 15.28225,-7.85082 8.20187,-1.90864 12.10529,-3.26587 12.90561,-4.48731 0.2919,-0.44549 0.28883,-0.47169 -0.0914,-0.77958 -0.57861,-0.46853 -1.69247,-0.57483 -4.84095,-0.46202 -7.56527,0.27108 -16.30906,2.27717 -21.76435,4.99339 -3.44419,1.71488 -6.07956,3.97036 -7.11887,6.09267 -0.54207,1.1069 -0.5997,1.36989 -0.5959,2.71918 0.004,1.29157 0.0709,1.62158 0.49719,2.43808 1.515,2.90191 5.28227,5.27104 11.69704,7.35594 8.62521,2.80333 20.04039,4.4644 34.46628,5.01534 2.69552,0.10295 13.36009,-0.059 16.40282,-0.2491 z"
       id="path54" />
    <path
       style="fill:#000000;fill-opacity:1;stroke:#000000;stroke-width:0.788645;stroke-opacity:1"
       d="m 63.91504,51.814876 c -1.122275,-1.2401 -1.569389,-4.29952 -0.973938,-6.664271 0.389132,-1.545381 1.212432,-2.230672 2.977489,-2.478372 C 100.38716,37.83508 281.42697,15.664342 319.24327,11.64925 c 2.51531,-0.267059 4.64106,-0.41779 4.72389,-0.334959 0.46457,0.464577 0.72877,6.419829 0.97147,21.897746 0.14928,9.520315 0.384,17.616003 0.4903,17.990418 0.14773,0.520331 -0.13932,1.292565 -0.44281,1.172738 -0.21838,-0.08622 -0.9438,-0.373095 -2.04987,-0.40468 l -2.10524,-0.06012 0.48888,-2.955903 c 0.24118,-1.458215 -0.19235,-29.857596 -0.56993,-31.363371 -0.37075,-1.478519 -1.18569,-2.110935 -2.72018,-2.110935 -2.53029,0 -39.62937,5.426434 -113.69131,16.629479 C 130.75153,43.24086 86.046858,49.771875 69.676971,51.782697 c -5.599209,0.687791 -5.170778,0.685398 -5.761931,0.03218 z"
       id="path62"
       sodipodi:nodetypes="ssssssssscssssss" />
    <path
       style="fill:#000000;fill-opacity:1;stroke:#000000;stroke-width:0.788645;stroke-opacity:1"
       d="m 312.119,102.77599 c 0.068,-0.88489 1.58982,-2.84981 2.89736,-3.901832 2.36766,-1.904972 3.4533,-3.08707 3.4533,-3.760126 0,-1.155537 -1.11914,-3.002554 -3.32658,-5.490119 -4.69859,-5.294837 -5.45185,-6.655397 -5.83217,-10.534231 -0.21757,-2.218964 0.24909,-5.839004 0.95681,-7.42236 0.56508,-1.264229 1.74278,-2.832895 5.32022,-7.086385 2.50238,-2.975272 3.10511,-4.28767 2.59062,-5.640882 -0.16392,-0.431139 -1.22862,-1.757915 -2.36599,-2.94839 -1.93186,-2.022053 -4.02681,-4.488298 -3.64619,-4.868916 0.16312,-0.163117 2.93869,2.060091 4.47381,3.312147 1.26159,1.028965 2.2436,1.191027 2.8657,0.472929 0.28149,-0.324917 0.63845,-1.024008 0.79325,-1.553535 0.1548,-0.529528 0.37645,-0.971853 0.49255,-0.982945 0.1161,-0.01109 1.22252,-0.02017 2.45871,-0.02017 h 2.24761 l 0.31456,1.249227 c 0.38273,1.519985 1.11372,2.25917 2.00423,2.026722 0.35454,-0.09255 1.51641,-0.867493 2.58194,-1.722106 1.06552,-0.854614 3.95502,-2.781405 4.17059,-2.781405 0.68684,0 -2.20944,2.895909 -4.155,4.886515 -3.46077,3.540904 -2.38149,5.971535 1.66502,9.886936 4.62459,4.474741 5.8026,8.093818 5.44398,12.371414 -0.30607,3.65083 -2.06989,6.950089 -6.04329,11.304077 -2.92839,3.208885 -3.56312,4.190205 -3.32469,5.14016 0.089,0.354823 0.99871,1.629779 2.02145,2.833234 2.03798,2.398075 3.62403,3.220821 3.90385,5.433311 0.0328,0.25928 -0.0303,0.67022 -0.28457,0.73058 -1.55416,0.36894 -2.86742,-2.73014 -3.56057,-3.20718 -1.47111,-1.012442 -2.71805,-3.138758 -4.42289,-3.06995 -1.25078,0.05048 -2.55983,-0.239132 -3.79416,0.03669 -1.54869,0.346064 -2.86573,0.620162 -4.32723,1.984659 -2.89699,2.704711 -5.70751,5.081131 -5.63163,4.094351 z m 13.81207,-11.866416 c 1.79553,-0.05194 4.72687,-1.469855 5.67696,-2.968002 0.99753,-1.57293 2.58037,-3.075463 1.61383,-3.708794 -0.66972,-0.438816 -4.09368,-0.499039 -9.43653,-0.499039 -5.27697,0 -8.77228,0.07691 -9.4152,0.498175 -0.40716,0.26678 -0.47944,0.344713 -0.57775,0.654441 -0.39209,1.235383 4.0952,4.975356 6.14936,5.992146 1.6141,0.798963 -2.1577,0.266726 -0.36326,0.214822 z m 4.74102,-8.30455 c 0.93961,0.0098 3.01909,-0.296754 3.58358,-0.558969 1.63532,-0.759634 2.17369,-2.44576 2.17369,-3.943477 0,-1.805916 -0.45237,-5.46474 -2.43231,-5.44702 l -19.10798,0.171016 c -3.29547,0.02949 -3.25995,0.140615 -3.91503,1.41295 -0.52765,1.024836 -0.85635,3.938706 -0.35142,4.96976 0.31652,0.64633 0.72972,2.230803 1.41364,2.610484 1.05448,0.58539 1.40766,0.605785 4.23672,0.635256 z m 0.8276,-12.099492 c 5.14852,-0.03998 -3.33295,-7.478841 -8.14336,-7.230629 -6.35386,-0.04516 -9.97021,6.982574 -9.02251,7.363915 z"
       id="path63"
       sodipodi:nodetypes="ssssssssssssssscssssssssssaassassssssssssssssssssssssscss" />
    <text
       xml:space="preserve"
       style="font-weight:500;font-size:66.9769px;font-family:Roboto;-inkscape-font-specification:'Roboto, Medium';fill:#29ade0;fill-opacity:1;stroke:#000000;stroke-width:11.7294;stroke-opacity:1"
       x="19.405901"
       y="98.6455"
       id="text63"><tspan
         sodipodi:role="line"
         id="tspan63"
         x="19.405901"
         y="98.6455"
         style="fill:#29ade0;fill-opacity:1;stroke:none;stroke-width:11.7294">Read<tspan
   style="fill:#000000"
   id="tspan64">Fish</tspan></tspan></text>
  </g>
</svg>
